Patient4_TMGait_0pt8_01_left_11_EMG.mot
version=1
nRows=27
nColumns=33
inDegrees=no
endheader
time	1LAddLong	2LGlutMax	3LGlutMed	4LIliopsoas	5LSemiMemb	6LBicFemLong	7LRecFem	8LVastMed	9LVastLat	10LGasMed	11LTibAnt	12lTibPost	13LPeroneusLong	14LSol	15LExtDigLong	16LFlexDigLong	17RAddLong	18RGlutMax	19RGlutMed	20RIliopsoas	21RSemiMemb	22RBicFemLong	23RRecFem	24RVastMed	25RVastLat	26RGasMed	27RTibAnt	28RTibPost	29RPeroneusLong	30RSol	31RExtDigLong	32RFlexDigLong
12.29	0.039673	-0.064697	0.36148	0.002441	0.14542	0.056915	-0.024261	-0.011902	0.075073	0.28122	0.007172	-0.27329	0.10742	-0.019531	0.008698	0.060883	0.058899	-0.010986	1.0631	0.001068	-0.77194	-0.040436	-0.071564	-0.075226	-0.18845	0.002441	-0.12589	0.000305	0.1796	-0.013428	-0.002136	-0.016022
12.291	0.023346	-0.021515	0.31296	0.00473	0.10635	-0.000763	-0.040436	-0.012054	0.032959	0.3009	0.005951	-0.2034	0.25833	0.37903	0.042419	0.14801	-0.060883	0.010223	1.1696	-0.010071	-0.75058	0.13672	-0.020294	-0.030365	-0.11688	0.002441	-0.10025	-0.003967	0.072937	0.034485	0.005493	-0.017853
12.292	0.023804	0.031128	0.31601	0.019073	0.063782	-0.021667	-0.036469	-0.010834	0.034637	0.20859	0.036926	0.19852	0.62485	0.51788	0.043182	-0.62073	-0.088806	0.011444	1.0329	-0.020294	-0.45258	0.15167	0.00824	0.033417	0.035095	0.000305	0.046387	-0.00824	0.11383	0.049591	0.002136	-0.019836
12.293	0.027008	0.0354	0.37399	0.016785	0.054626	-0.065002	-0.045166	-0.010986	0.032654	0.01297	-0.005798	0.031738	-0.088806	0.28091	0.014801	0.29419	-0.018921	-0.083466	0.99442	-0.054321	-0.11536	0.15442	0.13214	0.10742	0.037384	0.007629	0.038605	-0.009918	0.28153	0.079498	0.00061	-0.015259
12.294	0.027161	0.058441	0.40573	0.017395	0.026398	-0.14679	-0.052948	-0.002441	0.021667	-0.073547	0.074005	0.071411	-0.31158	-0.19623	0.000305	0.35126	0.069733	-0.069275	0.9343	-0.089417	-0.30807	0.12146	0.1918	-0.031891	0.028992	0.001831	-0.004272	-0.011597	0.4953	0.047455	-0.002747	-0.010376
12.295	0.021973	0.098114	0.3688	0.010376	0.012054	-0.16052	-0.052032	-0.000305	0	-0.25543	-0.018768	0.39291	0.009155	-0.26749	-0.003967	0.06485	0.056458	-0.12497	0.8963	-0.10239	-0.48004	0.066223	0.16525	0.039063	0.025024	-0.001831	0.1799	-0.013123	0.11078	0.008087	-0.003052	-0.006104
12.296	0.01709	0.11429	0.30624	0.005035	0.013275	-0.16052	-0.029144	0.009003	-0.030212	-0.36789	-0.003662	-0.42801	-0.17181	-0.19531	-0.041199	0.062561	0.016785	-0.086212	0.92712	-0.2002	-0.41321	-0.046082	0.16876	0.26108	0.000458	-0.009918	0.1059	-0.008545	-0.31601	0.026245	-0.003662	-0.01358
12.297	0.017242	0.08667	0.27893	-0.006104	0.026703	-0.046692	-0.034027	0.014038	-0.038605	-0.62103	-0.010986	-0.014496	-0.099945	-0.52933	-0.066986	-0.26382	-0.10254	-0.12207	0.96634	-0.1416	-0.35309	0.046234	0.091095	0.52963	-0.003662	-0.011292	0.17624	0.007629	-0.15488	-0.03952	-0.003662	-0.008087
12.298	0.012207	0.04715	0.34851	-0.012817	0.029449	-0.00885	-0.025482	0.017853	-0.046997	-0.098114	0.001068	0.040588	-0.18646	-0.097961	-0.015564	-0.16357	-0.11398	-0.15518	1.1003	0.05722	0.11765	0.097961	-0.054321	0.72494	0.12604	-0.001221	0.4602	-0.006561	-0.12711	-0.03952	-0.010834	-0.002441
12.299	0.014343	0.098419	0.36621	0.021057	0.049896	0.023956	-0.06485	0.011292	-0.058899	0.13138	0.007782	0.10529	-0.16342	0.19501	-0.018158	-0.66711	-0.046692	-0.14374	1.0669	0.21194	0.52643	0.095673	-0.18097	0.62851	0.041504	0.010681	0.62408	-0.001068	-0.1004	-0.050812	-0.002747	-0.011597
12.3	0.006409	0.1062	0.30914	0.023651	0.035706	0.070343	-0.090179	0.007019	-0.039063	-0.26672	0.004578	-0.088654	-0.053253	0.3157	-0.007629	-0.15167	-0.002594	-0.066833	1.0301	0.30975	0.64011	-0.069885	-0.088654	0.61356	-0.095825	0.019531	0.7341	0	0.06546	-0.074768	-0.000916	-0.004272
12.301	0.007019	0.08255	0.31525	0.018463	0.00885	0.083466	-0.13031	0.006714	0.028992	-0.25223	0.004578	-0.072327	0.002594	0.51926	0.020599	0.090179	0.056	-0.076447	1.1867	0.26825	0.6517	-0.32486	0.083923	0.61905	-0.18234	0.015564	0.32074	-0.002136	0.3067	-0.071106	0.003357	-0.007477
12.302	0.005188	0.075378	0.30563	-0.010071	-0.007172	0.094147	-0.15457	0.010376	-0.011292	-0.23041	0.017548	-0.046844	-0.02533	0.15335	0.010681	0.39887	0.02243	-0.004272	1.1705	0.11185	0.96847	-0.41534	0.14374	0.46341	-0.16678	0.009308	-0.10529	-0.01297	0.22827	-0.070343	-0.003052	-0.00351
12.303	0.007172	0.11032	0.30914	-0.012512	-0.030823	0.13611	-0.18112	0.010529	-0.00351	-0.19791	0.003052	-0.031433	-0.050201	0.18066	0.029755	0.28564	-0.029449	-0.059967	1.2524	-0.005798	0.99548	-0.50583	0.15274	0.48325	-0.12268	-0.000458	-1.0342	0.001221	0.25284	-0.078583	-0.001526	-0.002594
12.304	-0.001526	0.16098	0.31937	0.003662	-0.056152	0.13931	-0.20218	0.014038	-0.005493	-0.044098	0.006104	-0.024719	-0.050812	0.21805	0.010681	0.42389	-0.12619	0.080109	1.2474	-0.039063	1.3412	-0.50079	0.2214	0.5513	0.21484	-0.003815	-0.95551	-0.001068	0.35111	-0.033112	-0.008392	-0.007935
12.305	0.00473	0.16632	0.31082	-0.002747	-0.037537	0.10925	-0.21851	0.001831	0.013885	0.034485	-0.002441	0.00473	-0.16983	0.022125	0.005493	-0.61493	-0.16388	0.21271	1.188	-0.057831	1.3924	-0.42999	0.27329	0.6897	0.2623	-0.004578	-0.54001	-0.005951	0.37659	-0.077515	-0.000916	-0.004578
12.306	0.015106	0.11749	0.30899	0.003662	-0.005188	0.050812	-0.19211	0.00824	-0.00412	-0.20203	0.000763	-0.023956	0.11017	0.072937	0.020752	-0.062714	-0.15732	0.18341	1.2138	0.010529	1.0745	-0.61539	0.22522	0.63782	0.45395	-0.003662	-0.28854	-0.003357	0.30502	-0.046844	-0.002899	-0.016937
12.307	0.010834	0.14053	0.29739	0.01236	0.057373	0.070343	-0.16602	0.011597	-0.029449	-0.41306	-0.005798	0.020294	0.12497	0.12787	0.063934	-0.11368	-0.13367	0.084839	1.4796	0.046844	0.87814	-0.62958	0.16968	0.60791	0.43533	-0.013885	-0.21042	-0.007019	0.26382	0.13931	-0.00351	-0.005951
12.308	-0.001984	0.10803	0.31403	0.010376	-0.03952	0.10681	-0.16663	0.013885	-0.033264	-0.39841	-0.01297	0.17166	-0.10483	0.005646	0.068512	0.59479	-0.080566	0.054016	1.9566	0.039368	0.81299	-0.60349	-0.12268	0.50171	0.30136	-0.017548	-0.1442	-0.01236	0.22766	0.17609	-0.010223	-0.007629
12.309	0.007782	0.092773	0.36652	-0.012207	-0.085754	-0.035248	-0.20523	0.015106	-0.035858	-0.27527	0.002289	-0.11963	-0.48966	-0.74738	0.029755	-0.32562	-0.017395	-0.10284	1.9746	-0.031433	0.90027	-0.63492	-0.33752	0.24979	0.013733	-0.015106	-0.098877	-0.015411	0.20996	0.11108	-0.00412	-0.004425
12.31	0.016632	0.089264	0.29236	-0.000458	-0.049744	-0.11124	-0.27557	0.010834	-0.013275	-0.13657	0.011292	-0.13062	-0.1741	-0.93094	-0.032806	-0.010681	0.021667	-0.21957	1.6345	-0.089569	0.90851	-0.52719	-0.50964	-0.21561	-0.14114	-0.011292	-0.11108	-0.001526	0.20081	0.13672	-0.002441	0.001373
12.311	0.019989	0.11124	0.2832	0.013885	-0.032806	-0.043793	-0.31708	0.018158	0.068665	-0.048523	-0.010223	0.11673	0.13886	-0.32394	-0.030212	0.1178	0.028839	-0.12116	1.6223	-0.12299	0.93292	-0.42816	-0.48141	-0.24368	-0.24689	0.008698	-0.11475	-0.018005	0.15396	0.12466	-0.00351	-0.000916
12.312	0.018616	0.13947	0.25757	0.015564	0.058441	-0.051117	-0.22842	0.003967	0.011139	-0.016479	-0.011749	0.11353	0.045776	0.22263	-0.045013	0.098267	0.003967	-0.095673	1.7482	-0.020447	0.65033	-0.21194	-0.31906	0.46524	-0.40497	0.003815	-0.06424	-0.031738	0.072632	0.061035	-0.000305	-0.001526
12.313	0.024109	0.19287	0.38208	0.029602	0.1088	-0.057526	-0.22232	0.005951	-0.006409	0.063629	0.001831	-0.036469	-0.050964	0.015717	-0.049744	-0.28122	-0.031433	-0.049438	1.7578	0.025024	0.61142	0.060577	-0.2243	0.57632	-0.47211	0.005798	-0.026398	-0.017853	0.075226	0.026855	-0.002899	-0.000763
12.314	0.022278	0.22125	0.38223	0.009918	0.10056	-0.096436	-0.23865	0.007629	-0.011444	0.15533	0.013123	-0.019684	-0.097198	0.43015	-0.036469	0.15182	-0.028534	0.13001	1.644	0.019836	0.7727	0.25543	-0.17303	0.56686	-0.3772	-0.001984	-0.010681	0.055389	0.29541	-0.012512	-0.00061	-0.001678
12.315	0.016937	0.26733	0.37979	-0.018158	0.085754	-0.097046	-0.23941	0.011597	0.015717	0.24185	0.005646	-0.042267	0.30868	0.89661	-0.000153	0.15091	0.007477	0.17532	1.5016	0.02533	0.86319	0.53696	-0.079651	0.25269	-0.19714	0.002899	-0.018311	0.012207	0.31357	-0.054169	-0.003052	-0.010376
12.316	0.00885	0.31189	0.4129	0.010223	0.054169	0.051422	-0.26382	0.004425	0.040283	0.34286	-0.008087	-0.032196	0.31342	0.8609	-0.009918	0.062408	0.029297	0.18814	1.4812	-0.012817	0.80109	0.61005	-0.002441	-0.21698	-0.16174	-0.003967	0.037994	-0.015411	-0.021667	-0.011902	-0.002594	-0.007172
